<?xml version="1.0" standalone="no"?>
<!DOCTYPE svg PUBLIC "-//W3C//DTD SVG 20010904//EN"
 "http://www.w3.org/TR/2001/REC-SVG-20010904/DTD/svg10.dtd">
<svg version="1.0" xmlns="http://www.w3.org/2000/svg"
 width="260.000000pt" height="260.000000pt" viewBox="0 0 260.000000 260.000000"
 preserveAspectRatio="xMidYMid meet">
<metadata>
Created by potrace 1.11, written by Peter Selinger 2001-2013
</metadata>
<g transform="translate(0.000000,260.000000) scale(0.100000,-0.100000)"
fill="#000000" stroke="none">
<path d="M259 2555 c-62 -20 -131 -83 -157 -143 -44 -102 -37 -236 16 -322
l29 -46 -21 -16 c-12 -8 -35 -40 -51 -69 -25 -46 -30 -68 -33 -145 -3 -70 0
-105 13 -145 23 -68 89 -139 158 -170 46 -21 67 -24 177 -24 117 0 129 2 182
28 64 32 111 80 142 146 17 37 21 66 21 141 0 107 -21 169 -75 225 l-30 31 24
34 c35 52 48 104 48 185 0 132 -48 222 -146 272 -43 23 -66 27 -151 30 -68 2
-115 -2 -146 -12z m175 -186 c30 -14 56 -65 56 -108 0 -43 -24 -97 -48 -110
-35 -19 -89 -13 -118 12 -32 28 -44 108 -24 157 21 51 81 73 134 49z m22 -445
c43 -21 66 -64 66 -124 0 -60 -23 -103 -66 -124 -127 -60 -247 58 -192 189 28
67 118 94 192 59z"/>
<path d="M1150 2555 c-115 -37 -218 -148 -261 -283 -30 -92 -38 -333 -15 -442
32 -153 118 -274 234 -328 51 -24 68 -27 172 -27 104 0 121 3 172 27 70 33
147 108 183 178 48 95 67 190 67 340 0 209 -43 342 -143 442 -75 75 -142 102
-264 105 -67 2 -115 -2 -145 -12z m215 -196 c12 -12 -8 -48 -133 -245 -143
-225 -147 -231 -156 -200 -12 43 0 241 18 299 35 114 106 171 204 164 29 -2
59 -10 67 -18z m125 -332 c0 -170 -42 -292 -115 -337 -45 -28 -102 -36 -148
-21 l-35 12 141 224 c78 123 145 221 149 219 5 -3 8 -47 8 -97z"/>
<path d="M2039 2555 c-62 -20 -131 -83 -157 -143 -44 -102 -37 -236 16 -322
l29 -46 -21 -16 c-12 -8 -35 -40 -51 -69 -25 -46 -30 -68 -33 -145 -3 -70 0
-105 13 -145 23 -68 89 -139 158 -170 46 -21 67 -24 177 -24 117 0 129 2 182
28 64 32 111 80 142 146 17 37 21 66 21 141 0 107 -21 169 -75 225 l-30 31 24
34 c35 52 48 104 48 185 0 132 -48 222 -146 272 -43 23 -66 27 -151 30 -68 2
-115 -2 -146 -12z m175 -186 c30 -14 56 -65 56 -108 0 -43 -24 -97 -48 -110
-35 -19 -89 -13 -118 12 -32 28 -44 108 -24 157 21 51 81 73 134 49z m22 -445
c43 -21 66 -64 66 -124 0 -60 -23 -103 -66 -124 -127 -60 -247 58 -192 189 28
67 118 94 192 59z"/>
<path d="M40 620 l0 -540 105 0 105 0 2 328 3 327 80 -145 80 -145 64 0 64 0
84 150 83 150 0 -332 0 -333 105 0 105 0 0 540 0 541 -107 -3 -108 -3 -105
-190 c-58 -105 -109 -196 -114 -203 -5 -9 -43 50 -121 190 l-113 203 -106 3
-106 3 0 -541z"/>
<path d="M1050 1075 l0 -85 95 0 95 0 0 -370 0 -370 -95 0 -95 0 0 -85 0 -85
295 0 295 0 0 85 0 85 -95 0 -95 0 0 370 0 370 95 0 95 0 0 85 0 85 -295 0
-295 0 0 -85z"/>
<path d="M1733 1148 c2 -7 70 -122 151 -256 80 -134 146 -247 146 -252 0 -4
-74 -130 -165 -280 -91 -150 -165 -274 -165 -276 0 -3 55 -3 122 -2 l121 3
104 170 c57 94 107 171 111 172 4 1 54 -76 111 -172 l103 -175 114 0 c98 0
114 2 114 16 0 9 -72 135 -161 280 l-160 264 142 238 c78 130 149 247 157 260
l14 22 -123 0 -124 0 -89 -150 c-49 -83 -92 -152 -95 -155 -4 -2 -49 66 -100
151 l-94 154 -120 0 c-91 0 -118 -3 -114 -12z"/>
</g>
</svg>
